<svg id="Layer_1" data-name="Layer 1" xmlns="http://www.w3.org/2000/svg" viewBox="0 0 308.49 319.39"><defs><style>.cls-1{fill:#92945e;}.cls-2{fill:#ede7ab;}.cls-3{fill:#8d935c;}.cls-4{fill:#8d935f;}.cls-5{fill:#ede4a7;}.cls-6{fill:#f0e8a5;}.cls-7{fill:#99996e;}.cls-8{fill:#919367;}</style></defs><path class="cls-1" d="M130.76,22.73l.08,1a12.9,12.9,0,0,0,0,11.06.82.82,0,0,0,.71.47,18.68,18.68,0,0,1,3.94.68,22.41,22.41,0,0,1,3.19,1.75A9,9,0,0,0,143,38.92a31.41,31.41,0,0,0,5.59-.15q4.32-.54,5.47-.82a6.27,6.27,0,0,0,4.59-4,12.88,12.88,0,0,0,.47-5.6,28.36,28.36,0,0,0-1.06-6.16,13.41,13.41,0,0,0-4.19-6.06,6.92,6.92,0,0,0-2.62-1.63q-1.8-.22,0-.36c.14,0,.16,0,0-.14a29.06,29.06,0,0,0-10.77-4.53,2,2,0,0,0-1.72.47c-.56.51-1,.6-1.31.25,1.9-3,3.49-4.8,4.79-5.5A37,37,0,0,1,155.79.43,52.07,52.07,0,0,1,168.3.33,26.32,26.32,0,0,1,180.24,5q2.43,1.73,7.62,8.38A30.78,30.78,0,0,1,194.24,30a55.72,55.72,0,0,1,0,12,17.72,17.72,0,0,1-7,12,38.6,38.6,0,0,1-23.45,8,67.72,67.72,0,0,1-11-.61,37.63,37.63,0,0,1-10.58-3.23,20.19,20.19,0,0,1-8.65-7.64,44.92,44.92,0,0,1-3.28-6.21,18.27,18.27,0,0,1-1.48-6.76,95.35,95.35,0,0,1,.27-10.19A8,8,0,0,1,130.76,22.73Z"/><path class="cls-2" d="M130.14,22.11A51.1,51.1,0,0,1,134,14.49c.5-.83,3.56-4.26,3.56-4.26.32.35.75.26,1.31-.25a2,2,0,0,1,1.72-.47A29.06,29.06,0,0,1,151.31,14c.12.09.1.13,0,.14q-1.83.13,0,.36a6.92,6.92,0,0,1,2.62,1.63,13.41,13.41,0,0,1,4.19,6.06,28.36,28.36,0,0,1,1.06,6.16,12.88,12.88,0,0,1-.47,5.6,6.27,6.27,0,0,1-4.59,4q-1.16.28-5.47.82a31.41,31.41,0,0,1-5.59.15,9,9,0,0,1-4.31-1.23,22.41,22.41,0,0,0-3.19-1.75,18.68,18.68,0,0,0-3.94-.68,7.67,7.67,0,0,1-2-1.77C127.93,29.85,128.48,25.85,130.14,22.11Z"/><path class="cls-3" d="M123.8,53.94a1.6,1.6,0,0,1-1.5-.21A25.92,25.92,0,0,0,120,52a4.63,4.63,0,0,0-2.67-.73q-3.66,0-7.31-.3a28.86,28.86,0,0,1,6.93-.75,6.71,6.71,0,0,1,3.74,1.14A18.6,18.6,0,0,1,123.8,53.94Z"/><path class="cls-3" d="M110.05,50.94q3.65.29,7.31.3A4.63,4.63,0,0,1,120,52a25.92,25.92,0,0,1,2.27,1.76,1.6,1.6,0,0,0,1.5.21q1.22.5.27.54c-.18,0-.2.06-.06.17a44.2,44.2,0,0,1,5.67,5.61c0,.05.52.89,1.46,2.54a7.39,7.39,0,0,0,2.31,2.38,1.17,1.17,0,0,1,.32,1.58,53.25,53.25,0,0,1-6.16,8,13.57,13.57,0,0,0-2,2.93,15.76,15.76,0,0,1-2,3,3.25,3.25,0,0,0-.74,1.27c-.14.49-1.6,1.59-1.72,2.46a3.12,3.12,0,0,1-.34,1.08,29.91,29.91,0,0,0-2.27,5.19.84.84,0,0,1-.64.54,1.16,1.16,0,0,0-.72.52q-3.63,6.83-7.65,13.43-8.74,14.28-17.43,28.59Q89.26,138.33,81.88,151q-10.83,18.53-22.82,36.3-12.81,19-25.27,38.2A11,11,0,0,1,31.32,228a16,16,0,0,0-2.65,2.5.79.79,0,0,1-1.12.11.86.86,0,0,1-.13-.14A78.07,78.07,0,0,1,16,208.78q-2.88-8.52-5.52-17.12s-1.22-3.82-3.61-11.3a106.33,106.33,0,0,1-4.6-19.88q-.9-7.89-1.81-15.77a60.7,60.7,0,0,1,2.06-25.48,42.76,42.76,0,0,0,2-8c0,2.59,2.09-.66,1.29,2.25-.42,1.51,0,3.13,1.43,4.87a1.28,1.28,0,0,1,.25.87q-.23,2.55,3.17,1.89a3.46,3.46,0,0,0,1.22-.48q3.77-2.4,7.13-4.43,1.72-1,7.12-4.49a218.47,218.47,0,0,1,22.12-12Q73.69,87.34,97.8,83a70.24,70.24,0,0,1,9.06-1.25,1.58,1.58,0,0,0,.38,0c1.32-.29,1.35-.45.07-.46-.22,0-.23,0,0-.1.84-.25,1.23-.59,1.18-1,0-.22-.31-.36-.62-.32-.61.08-.74,0-.39-.4a2.72,2.72,0,0,1,2.4-.84,3.25,3.25,0,0,0,1,0l6.82-1.24a3,3,0,0,0,2.5-2,41.85,41.85,0,0,1,2.06-4.78c0-.06.51-.69,1.44-1.88a3.72,3.72,0,0,0,.38-3.68,4.39,4.39,0,0,0-4-3.22,146.91,146.91,0,0,0-16.77-.63,24.2,24.2,0,0,1-6.35-.73q-4.17-1-9.27-2a5,5,0,0,0-2.36.12,17.27,17.27,0,0,1-6.25.63Q86.07,57,93.13,55q1.58-.45,5-1.09a38.08,38.08,0,0,0,5-1.28,17.32,17.32,0,0,1,3.44-.54A7.69,7.69,0,0,0,110.05,50.94Z"/><path class="cls-4" d="M288.11,86.92a8.9,8.9,0,0,0,2.54,2,11.66,11.66,0,0,1,2.61,1.85A38.13,38.13,0,0,1,300.49,101a85.57,85.57,0,0,1,8,37.19q-.08,7.4-.51,14.76a114.23,114.23,0,0,1-3.74,22.91Q302,184,302,184.11q-4.08,16.13-6,20.87a246.47,246.47,0,0,1-13.68,28.87c-1.6,2.87-3.21,4.78-4.81,5.73a15.11,15.11,0,0,1-7.65,1.91,3,3,0,0,1-3.29-2.57,28.69,28.69,0,0,0-2.5-6.32Q256,217,253.86,210.42a122.63,122.63,0,0,0-6.75-16.75,94.23,94.23,0,0,1-5.8-14.69A96.86,96.86,0,0,0,237,167.3q-5-11.15-9.1-22.63A91.88,91.88,0,0,0,222.74,133q-5.4-10.3-10.5-20.75a102.18,102.18,0,0,1-5.68-13.75c-1-3.08-1.78-5.42-2.38-7s-1.15-3.09-1.68-4.65a37.91,37.91,0,0,0-1.88-4.54,94.67,94.67,0,0,1-4.54-10.76,45.91,45.91,0,0,1-2-6.62,12.21,12.21,0,0,1,1.15-7.06,10.36,10.36,0,0,1,4.92-5.12,11.93,11.93,0,0,1,6.62-.8,25.78,25.78,0,0,1,8.8,2.7q2.85,1.47,4.68,2.21a38.23,38.23,0,0,1,4.71,2.25A6.46,6.46,0,0,0,228,60a24.92,24.92,0,0,1,9.61,2.07c2.53,1.11,3.82,1.68,3.87,1.69q10.2,4,20.17,8.56l9.78,4a57.88,57.88,0,0,1,11.22,6.17l1.92,1.24A15.27,15.27,0,0,1,288.11,86.92Z"/><path class="cls-5" d="M4.51,111.23l3.75-7,0,.35a.35.35,0,0,0,.38.31h0a1.32,1.32,0,0,0,1.17-1.33.8.8,0,0,1,.45-.7,3.19,3.19,0,0,0,1.93-3.62l.08-.25,2.79-3.34c0-.06.09,0,.13,0l0,.13c.15.45.2.41.16-.12a1.11,1.11,0,0,1,.45-1.13l.59-.4q3.26-3.09,6.3-6.4a33.77,33.77,0,0,1,11.75-8.54,7.7,7.7,0,0,0,2.75-1.79c2,.59,3.47.15,4.49-1.3a1.71,1.71,0,0,1,.75-.54l4.76-1.93c.38-.16.39-.35.05-.56a2.37,2.37,0,0,0-1.05-.34,2.66,2.66,0,0,0,1.22-.61,1.25,1.25,0,0,1,.84-.34,3.15,3.15,0,0,0,2.45-1.13,2.62,2.62,0,0,1,.78-.58l5-2.67A11.13,11.13,0,0,0,63.06,66c.2-.11.17-.2-.07-.25l-1.19-.27a4,4,0,0,1,2-.58,11.88,11.88,0,0,0,7.11-1.39,7.38,7.38,0,0,1,1-.36,1.33,1.33,0,0,0,.84-.67.71.71,0,0,1,.65-.42,2.49,2.49,0,0,0,2.22-.9,1.31,1.31,0,0,1,.78-.48c1.7-.27,1.76-.62.19-1l2.5-.5a17.27,17.27,0,0,0,6.25-.63,5,5,0,0,1,2.36-.12q5.1.91,9.27,2a24.2,24.2,0,0,0,6.35.73,146.91,146.91,0,0,1,16.77.63,4.39,4.39,0,0,1,4,3.22,3.72,3.72,0,0,1-.38,3.68c-.93,1.19-1.41,1.82-1.44,1.88a41.85,41.85,0,0,0-2.06,4.78,3,3,0,0,1-2.5,2l-6.82,1.24a3.25,3.25,0,0,1-1,0,2.72,2.72,0,0,0-2.4.84c-.35.35-.22.48.39.4.31,0,.58.1.62.32,0,.41-.34.75-1.18,1-.22.07-.21.1,0,.1,1.28,0,1.25.17-.07.46a1.58,1.58,0,0,1-.38,0A70.24,70.24,0,0,0,97.8,83Q73.7,87.35,48.24,99.67a218.47,218.47,0,0,0-22.12,12q-5.4,3.44-7.12,4.49-3.36,2-7.13,4.43a3.46,3.46,0,0,1-1.22.48q-3.39.66-3.17-1.89a1.28,1.28,0,0,0-.25-.87A12.18,12.18,0,0,1,4.51,111.23Zm103.42-49.5c-1.53-.56-2.09-.52-1.68.11a1,1,0,0,0,.81.41C108.72,62.3,109,62.13,107.93,61.73ZM119.54,73a5,5,0,0,1-1.67,1.8,3.71,3.71,0,0,0-.88.75q-1.45,1.94,1.5.92a2.5,2.5,0,0,0,1.81-2.19C120.56,72,120.3,71.55,119.54,73Z"/><path class="cls-5" d="M76.55,59.69c1.57.41,1.51.76-.19,1a1.31,1.31,0,0,0-.78.48,2.49,2.49,0,0,1-2.22.9.71.71,0,0,0-.65.42,1.33,1.33,0,0,1-.84.67,7.38,7.38,0,0,0-1,.36,11.88,11.88,0,0,1-7.11,1.39Z"/><path class="cls-5" d="M107.93,61.73c1.08.4.79.57-.87.52a1,1,0,0,1-.81-.41C105.84,61.21,106.4,61.17,107.93,61.73Z"/><path class="cls-3" d="M159.63,72.1a30.84,30.84,0,0,0,16.29-4.3c1.58-.93,3.58-2,6-3.09a2,2,0,0,1,2.49.77,67.59,67.59,0,0,1,3.44,6.59,60.92,60.92,0,0,1,2.54,7A260.21,260.21,0,0,0,205,116.29q12.63,25.94,20.37,43.13,4.26,9.45,17.67,46.49,1.75,4.84,4.79,11.24,2.61,5.53,4.89,11.23,3.21,8,7,16.29a.9.9,0,0,1-.28,1.08,65.55,65.55,0,0,0-20.55,25.16,1.06,1.06,0,0,1-1.17.59,219.88,219.88,0,0,0-22-3.11q-14.73-1.32-19.67-1.95-14.33-1.81-28.7-3.25-21.13-2.12-32.69-4t-20.38-3.06q-7.14-.93-19.92-1.61-16.08-.85-26.76-2a10,10,0,0,1-6.42-3.59A228.86,228.86,0,0,0,41.6,229.5a.77.77,0,0,1-.12-1q10-14.56,19.92-29l5-8.15a50.13,50.13,0,0,1,3.71-5.24,38.24,38.24,0,0,0,3.61-5.27c1.26-2.28,2.61-4.51,4-6.69,1.6-2.45,3-4.67,4.06-6.66q3.78-6.83,9.89-16.82,14.1-23.13,28.33-46.2.08-.14,10.33-16.21,5.13-8.06,9.87-16.51a3.2,3.2,0,0,1,2.21-1.57,23.92,23.92,0,0,1,11.3.72A23.73,23.73,0,0,0,159.63,72.1Zm-12.79,91.31a5.93,5.93,0,0,0,6,.82,19.53,19.53,0,0,0,9.44-6.81q3-4,4.06-11.44a75,75,0,0,0,.25-17.78q-.72-7.62-2.46-17.55a155,155,0,0,0-4.23-17.74q-.72-2.4-3-1.34a15,15,0,0,0-7.54,7.71,91.64,91.64,0,0,0-5.79,17q-1.17,5-2.94,15.5a91.17,91.17,0,0,0-1.54,15.75A19.58,19.58,0,0,0,146.84,163.41ZM79.61,188.6a3.94,3.94,0,0,0-1.91,2.16,2.34,2.34,0,0,1-.51.81A25.36,25.36,0,0,0,73.63,196a8.5,8.5,0,0,0-1.29,4.24,14,14,0,0,0,.21,4.54,4.34,4.34,0,0,0,4,2.94,19.73,19.73,0,0,0,5.75-.38q.48-.1,5.49-1.58a200.27,200.27,0,0,0,20.31-7.42,122.69,122.69,0,0,0,19.3-9.87,5.62,5.62,0,0,0,2.46-3,11,11,0,0,0-1-9,5.16,5.16,0,0,0-4.79-2.7,75.53,75.53,0,0,0-11.6.65,53.14,53.14,0,0,0-11.21,2.87,86.82,86.82,0,0,0-19.51,10.21C81.67,187.51,81,187.89,79.61,188.6ZM162,198.49a207.51,207.51,0,0,0,27.72,16.84q11,5.53,15.67,7a39.08,39.08,0,0,0,17.4,1.55q3.41-.48,1.15-3.07a153.79,153.79,0,0,0-44.65-35.43,47.9,47.9,0,0,0-16.2-4.73,7.77,7.77,0,0,0-5.94,1.24,6.4,6.4,0,0,0-2.32,4.9,10.39,10.39,0,0,0,3.61,8.77A37,37,0,0,0,162,198.49Z"/><path class="cls-5" d="M61.8,65.52l1.19.27c.24,0,.27.14.07.25a11.13,11.13,0,0,1-6.51,1.4A13.31,13.31,0,0,1,61.8,65.52Z"/><path class="cls-5" d="M119.54,73c.76-1.4,1-1,.76,1.28a2.5,2.5,0,0,1-1.81,2.19q-3,1-1.5-.92a3.71,3.71,0,0,1,.88-.75A5,5,0,0,0,119.54,73Z"/><path class="cls-5" d="M46.3,72.77a2.37,2.37,0,0,1,1.05.34c.34.21.33.4-.05.56L42.54,75.6a1.71,1.71,0,0,0-.75.54c-1,1.45-2.52,1.89-4.49,1.3Z"/><path class="cls-5" d="M22.8,87.77q-3,3.32-6.3,6.4l-.59.4a1.11,1.11,0,0,0-.45,1.13c0,.53,0,.57-.16.12l0-.13c0-.09-.08-.11-.13,0L12.34,99a6,6,0,0,1,2-3.94q3-2.92,6-5.77A6.64,6.64,0,0,1,22.8,87.77Z"/><path class="cls-6" d="M146.84,163.41a19.58,19.58,0,0,1-7.79-15.93,91.17,91.17,0,0,1,1.54-15.75q1.77-10.5,2.94-15.5a91.64,91.64,0,0,1,5.79-17,15,15,0,0,1,7.54-7.71q2.28-1.06,3,1.34a155,155,0,0,1,4.23,17.74q1.74,9.93,2.46,17.55A75,75,0,0,1,166.3,146q-1.1,7.41-4.06,11.44a19.53,19.53,0,0,1-9.44,6.81A5.93,5.93,0,0,1,146.84,163.41Z"/><path class="cls-5" d="M12.26,99.23a3.19,3.19,0,0,1-1.93,3.62.8.8,0,0,0-.45.7,1.32,1.32,0,0,1-1.17,1.33.35.35,0,0,1-.41-.27v0l0-.35A10.74,10.74,0,0,1,12.26,99.23Z"/><path class="cls-2" d="M81.73,187.46a86.82,86.82,0,0,1,19.51-10.21,53.14,53.14,0,0,1,11.21-2.87,75.53,75.53,0,0,1,11.6-.65,5.16,5.16,0,0,1,4.79,2.7,11,11,0,0,1,1,9,5.62,5.62,0,0,1-2.46,3,122.69,122.69,0,0,1-19.3,9.87,200.27,200.27,0,0,1-20.31,7.42q-5,1.47-5.49,1.58a19.73,19.73,0,0,1-5.75.38,4.34,4.34,0,0,1-4-2.94,14,14,0,0,1-.21-4.54A8.5,8.5,0,0,1,73.63,196a25.36,25.36,0,0,1,3.56-4.38,2.34,2.34,0,0,0,.51-.81,3.94,3.94,0,0,1,1.91-2.16C81,187.89,81.67,187.51,81.73,187.46Z"/><path class="cls-5" d="M162,198.49a37,37,0,0,1-3.56-2.91,10.39,10.39,0,0,1-3.61-8.77,6.4,6.4,0,0,1,2.32-4.9,7.77,7.77,0,0,1,5.94-1.24,47.9,47.9,0,0,1,16.2,4.73A153.79,153.79,0,0,1,224,220.83q2.25,2.59-1.15,3.07a39.08,39.08,0,0,1-17.4-1.55q-4.71-1.48-15.67-7A207.51,207.51,0,0,1,162,198.49Z"/><path class="cls-7" d="M54.53,258.2l.07-.45c0-.19.06-.19.1,0a24,24,0,0,1,.41,6.14,11.12,11.12,0,0,1-1.67,4.85c-.68,1.15-1.33,2.31-2,3.49a10.91,10.91,0,0,1-2.42,3.1,45.71,45.71,0,0,1-15.51,9.16,15.6,15.6,0,0,1-9.4-.17,48.06,48.06,0,0,1-12.91-6.52,21.33,21.33,0,0,1-7.33-7.85,36.69,36.69,0,0,1-1.7-3.5,10.34,10.34,0,0,1-.41-4,20.28,20.28,0,0,1,5-12.81,35.94,35.94,0,0,1,6-5.42,23,23,0,0,1,8.63-3.45,5.93,5.93,0,0,0,2.23-1,12.43,12.43,0,0,1,7.69-2.1,16.45,16.45,0,0,1,7.8,2.45q6,3.47,6.22,3.6A14.6,14.6,0,0,1,50,249.6a4.37,4.37,0,0,0,.59.94,18.26,18.26,0,0,1,3.7,7.63C54.36,258.64,54.45,258.65,54.53,258.2Z"/><path class="cls-8" d="M253.59,265.48a7.85,7.85,0,0,0,3.17,6.53,7,7,0,0,1,2.41,3.5,1.44,1.44,0,0,0,.53.77,10.7,10.7,0,0,1,2,2.07,6.36,6.36,0,0,0,2,1.9q9.46,5.08,19.52.17,7.68-3.76,5.27-12a2,2,0,0,0-.51-.81,6.49,6.49,0,0,1-1.86-3.37,1.45,1.45,0,0,0-.49-.8,59.82,59.82,0,0,1-6.34-5.88c0-.05-.42-.38-1.12-1a3.53,3.53,0,0,1-1.1-1.76,1.24,1.24,0,0,0-.53-.75,10,10,0,0,0-7.26-1.09A13.48,13.48,0,0,1,274,251l4-.82a23.73,23.73,0,0,1,8.44-.5,9.07,9.07,0,0,1,3.17.94,8.15,8.15,0,0,1,2.69,2,30.27,30.27,0,0,0,3.57,3.85,20.93,20.93,0,0,1,6.72,11.17,55,55,0,0,1,1,8.6,28.9,28.9,0,0,1-1.85,11.21Q297,300.65,283.86,303a32.86,32.86,0,0,1-19-1.71,20.82,20.82,0,0,1-8.7-6.89q-9.4-12.54-2.89-28.6a.59.59,0,0,0,.05-.23C253.33,264.21,253.43,264.17,253.59,265.48Z"/><path class="cls-5" d="M253.59,265.48a11.22,11.22,0,0,1,2.52-4.44,22.4,22.4,0,0,1,10.13-6.87,15.38,15.38,0,0,0,3.06-1.23,10,10,0,0,1,7.26,1.09,1.24,1.24,0,0,1,.53.75,3.53,3.53,0,0,0,1.1,1.76c.7.62,1.08.95,1.12,1a59.82,59.82,0,0,0,6.34,5.88,1.45,1.45,0,0,1,.49.8,6.49,6.49,0,0,0,1.86,3.37,2,2,0,0,1,.51.81q2.42,8.25-5.27,12-10,4.92-19.52-.17a6.36,6.36,0,0,1-2-1.9,10.7,10.7,0,0,0-2-2.07,1.44,1.44,0,0,1-.53-.77,7,7,0,0,0-2.41-3.5A7.85,7.85,0,0,1,253.59,265.48Z"/><path class="cls-4" d="M237,278.78a4.12,4.12,0,0,1,3.62,2.71q1.27,3.11.36,5c-.38.79-1.55,1.67-3.52,2.66q-13.42,6.7-23,10.49l-23,9.1a176.84,176.84,0,0,1-33.17,9.71,58.15,58.15,0,0,1-25.1-1.05,136.46,136.46,0,0,1-29.84-11.26q-4-2.12-6.93-3.47-5.82-2.7-7-3.33A261.68,261.68,0,0,1,63.74,284q-4.44-3-3.69-8.81.35-2.7,4.08-9.71c0-.08.27-.62.71-1.63A2.9,2.9,0,0,1,68.3,262a187,187,0,0,0,34.25,2.73q9.27-.1,18.51.67,13.44,1.15,26.86,2.64,6.81.75,19.79,2.88,13.6,2.24,27.34,3.6Q216.71,276.65,237,278.78Z"/></svg>